<mxfile host="app.diagrams.net" modified="2024-04-30T02:09:45.714Z" agent="Mozilla/5.0 (Windows NT 10.0; Win64; x64) AppleWebKit/537.36 (KHTML, like Gecko) Chrome/124.0.0.0 Safari/537.36" etag="qMa9d5L8T_PMpIJqovLR" version="24.3.1" type="device">
  <diagram name="Page-1" id="AzyjC-0bMkruOMgwcXXL">
    <mxGraphModel dx="1050" dy="618" grid="1" gridSize="10" guides="1" tooltips="1" connect="1" arrows="1" fold="1" page="1" pageScale="1" pageWidth="850" pageHeight="1100" math="0" shadow="0">
      <root>
        <mxCell id="0" />
        <mxCell id="1" parent="0" />
        <mxCell id="TZT-V1a98MJtroSE2lsz-17" value="&lt;p style=&quot;margin:0px;margin-top:4px;text-align:center;&quot;&gt;&lt;i&gt;&amp;lt;&amp;lt;Interface&amp;gt;&amp;gt;&lt;/i&gt;&lt;br&gt;&lt;b&gt;Reprodutor Musical&lt;/b&gt;&lt;/p&gt;&lt;hr size=&quot;1&quot; style=&quot;border-style:solid;&quot;&gt;&lt;p style=&quot;margin:0px;margin-left:4px;&quot;&gt;&lt;br&gt;&lt;/p&gt;&lt;hr size=&quot;1&quot; style=&quot;border-style:solid;&quot;&gt;&lt;p style=&quot;margin:0px;margin-left:4px;&quot;&gt;+ tocar(musica: String)&lt;br&gt;+ pausar()&lt;/p&gt;&lt;p style=&quot;margin:0px;margin-left:4px;&quot;&gt;- selecionarMusica(musica: String)&lt;/p&gt;" style="verticalAlign=top;align=left;overflow=fill;html=1;whiteSpace=wrap;" vertex="1" parent="1">
          <mxGeometry x="40" y="90" width="210" height="130" as="geometry" />
        </mxCell>
        <mxCell id="TZT-V1a98MJtroSE2lsz-18" value="&lt;p style=&quot;margin:0px;margin-top:4px;text-align:center;&quot;&gt;&lt;i&gt;&amp;lt;&amp;lt;Interface&amp;gt;&amp;gt;&lt;/i&gt;&lt;br&gt;&lt;b&gt;Aparelho TelefÃ´nico&lt;/b&gt;&lt;/p&gt;&lt;hr size=&quot;1&quot; style=&quot;border-style:solid;&quot;&gt;&lt;p style=&quot;margin:0px;margin-left:4px;&quot;&gt;&lt;br&gt;&lt;/p&gt;&lt;hr size=&quot;1&quot; style=&quot;border-style:solid;&quot;&gt;&lt;p style=&quot;margin:0px;margin-left:4px;&quot;&gt;+ ligar(telefone: Int)&lt;br&gt;+ atender()&lt;/p&gt;&lt;p style=&quot;margin:0px;margin-left:4px;&quot;&gt;- iniciarCorreioVoz()&lt;/p&gt;" style="verticalAlign=top;align=left;overflow=fill;html=1;whiteSpace=wrap;" vertex="1" parent="1">
          <mxGeometry x="320" y="90" width="210" height="130" as="geometry" />
        </mxCell>
        <mxCell id="TZT-V1a98MJtroSE2lsz-19" value="&lt;p style=&quot;margin:0px;margin-top:4px;text-align:center;&quot;&gt;&lt;i&gt;&amp;lt;&amp;lt;Interface&amp;gt;&amp;gt;&lt;/i&gt;&lt;br&gt;&lt;b&gt;Navegador Internet&lt;/b&gt;&lt;/p&gt;&lt;hr size=&quot;1&quot; style=&quot;border-style:solid;&quot;&gt;&lt;p style=&quot;margin:0px;margin-left:4px;&quot;&gt;&lt;br&gt;&lt;/p&gt;&lt;hr size=&quot;1&quot; style=&quot;border-style:solid;&quot;&gt;&lt;p style=&quot;margin:0px;margin-left:4px;&quot;&gt;+ exibirPagina(url: String)&lt;br&gt;+ adicionarNovaAba(url: String)&lt;/p&gt;&lt;p style=&quot;margin:0px;margin-left:4px;&quot;&gt;+ atualizarPagina()&lt;/p&gt;" style="verticalAlign=top;align=left;overflow=fill;html=1;whiteSpace=wrap;" vertex="1" parent="1">
          <mxGeometry x="600" y="90" width="210" height="130" as="geometry" />
        </mxCell>
        <mxCell id="TZT-V1a98MJtroSE2lsz-22" value="" style="edgeStyle=orthogonalEdgeStyle;rounded=0;orthogonalLoop=1;jettySize=auto;html=1;" edge="1" parent="1" source="TZT-V1a98MJtroSE2lsz-20" target="TZT-V1a98MJtroSE2lsz-21">
          <mxGeometry relative="1" as="geometry" />
        </mxCell>
        <mxCell id="TZT-V1a98MJtroSE2lsz-24" value="" style="edgeStyle=orthogonalEdgeStyle;rounded=0;orthogonalLoop=1;jettySize=auto;html=1;" edge="1" parent="1" source="TZT-V1a98MJtroSE2lsz-20" target="TZT-V1a98MJtroSE2lsz-23">
          <mxGeometry relative="1" as="geometry" />
        </mxCell>
        <mxCell id="TZT-V1a98MJtroSE2lsz-26" value="" style="edgeStyle=orthogonalEdgeStyle;rounded=0;orthogonalLoop=1;jettySize=auto;html=1;" edge="1" parent="1" source="TZT-V1a98MJtroSE2lsz-20" target="TZT-V1a98MJtroSE2lsz-25">
          <mxGeometry relative="1" as="geometry" />
        </mxCell>
        <mxCell id="TZT-V1a98MJtroSE2lsz-20" value="&lt;p style=&quot;margin:0px;margin-top:4px;text-align:center;&quot;&gt;&lt;b&gt;Iphone&lt;/b&gt;&lt;/p&gt;&lt;hr size=&quot;1&quot; style=&quot;border-style:solid;&quot;&gt;&lt;div style=&quot;height:2px;&quot;&gt;&lt;/div&gt;&lt;hr size=&quot;1&quot; style=&quot;border-style:solid;&quot;&gt;&lt;div style=&quot;height:2px;&quot;&gt;&lt;/div&gt;" style="verticalAlign=top;align=left;overflow=fill;html=1;whiteSpace=wrap;" vertex="1" parent="1">
          <mxGeometry x="355" y="340" width="140" height="60" as="geometry" />
        </mxCell>
        <mxCell id="TZT-V1a98MJtroSE2lsz-21" value="" style="shape=waypoint;sketch=0;size=6;pointerEvents=1;points=[];fillColor=default;resizable=0;rotatable=0;perimeter=centerPerimeter;snapToPoint=1;align=left;verticalAlign=top;" vertex="1" parent="1">
          <mxGeometry x="135" y="210" width="20" height="20" as="geometry" />
        </mxCell>
        <mxCell id="TZT-V1a98MJtroSE2lsz-23" value="" style="shape=waypoint;sketch=0;size=6;pointerEvents=1;points=[];fillColor=default;resizable=0;rotatable=0;perimeter=centerPerimeter;snapToPoint=1;align=left;verticalAlign=top;" vertex="1" parent="1">
          <mxGeometry x="415" y="210" width="20" height="20" as="geometry" />
        </mxCell>
        <mxCell id="TZT-V1a98MJtroSE2lsz-25" value="" style="shape=waypoint;sketch=0;size=6;pointerEvents=1;points=[];fillColor=default;resizable=0;rotatable=0;perimeter=centerPerimeter;snapToPoint=1;align=left;verticalAlign=top;" vertex="1" parent="1">
          <mxGeometry x="695" y="210" width="20" height="20" as="geometry" />
        </mxCell>
      </root>
    </mxGraphModel>
  </diagram>
</mxfile>
